<svg width="51" height="50" viewBox="0 0 51 50" fill="none" xmlns="http://www.w3.org/2000/svg">
<path d="M19.3752 30.8332H11.6252C4.61141 30.8332 1.61475 27.7398 1.61475 20.4998V12.4998C1.61475 5.25984 4.61141 2.1665 11.6252 2.1665H19.3752C26.3889 2.1665 29.3856 5.25984 29.3856 12.4998V20.4998C29.3856 27.7398 26.3889 30.8332 19.3752 30.8332ZM11.6252 4.1665C5.67058 4.1665 3.55225 6.35317 3.55225 12.4998V20.4998C3.55225 26.6465 5.67058 28.8332 11.6252 28.8332H19.3752C25.3297 28.8332 27.4481 26.6465 27.4481 20.4998V12.4998C27.4481 6.35317 25.3297 4.1665 19.3752 4.1665H11.6252Z" fill="#5E5A5A"/>
<path d="M11.392 13.4996C10.2941 13.4996 9.1962 13.0729 8.35662 12.2063C7.98204 11.8196 7.98204 11.1796 8.35662 10.7929C8.7312 10.4063 9.3512 10.4063 9.72579 10.7929C10.6429 11.7396 12.1412 11.7396 13.0584 10.7929C13.4329 10.4063 14.0529 10.4063 14.4275 10.7929C14.8021 11.1796 14.8021 11.8196 14.4275 12.2063C13.5879 13.0596 12.49 13.4996 11.392 13.4996Z" fill="#5E5A5A"/>
<path d="M19.6088 13.4996C18.5109 13.4996 17.413 13.0729 16.5734 12.2063C16.1988 11.8196 16.1988 11.1796 16.5734 10.7929C16.948 10.4063 17.568 10.4063 17.9426 10.7929C18.8597 11.7396 20.358 11.7396 21.2751 10.7929C21.6497 10.4063 22.2697 10.4063 22.6443 10.7929C23.0188 11.1796 23.0188 11.8196 22.6443 12.2063C21.8047 13.0596 20.7068 13.4996 19.6088 13.4996Z" fill="#5E5A5A"/>
<path d="M15.5 26.033C11.7542 26.033 8.71875 22.8863 8.71875 19.033C8.71875 17.8197 9.67458 16.833 10.85 16.833H20.15C21.3254 16.833 22.2812 17.8197 22.2812 19.033C22.2812 22.8863 19.2458 26.033 15.5 26.033ZM10.85 18.833C10.7467 18.833 10.6562 18.9263 10.6562 19.033C10.6562 21.793 12.8263 24.033 15.5 24.033C18.1737 24.033 20.3438 21.793 20.3438 19.033C20.3438 18.9263 20.2533 18.833 20.15 18.833H10.85Z" fill="#5E5A5A"/>
<path d="M39.3752 47.8327H31.6252C24.6114 47.8327 21.6147 44.7393 21.6147 37.4993V29.4993C21.6147 22.2593 24.6114 19.166 31.6252 19.166H39.3752C46.3889 19.166 49.3856 22.2593 49.3856 29.4993V37.4993C49.3856 44.7393 46.3889 47.8327 39.3752 47.8327ZM31.6252 21.166C25.6706 21.166 23.5522 23.3527 23.5522 29.4993V37.4993C23.5522 43.646 25.6706 45.8327 31.6252 45.8327H39.3752C45.3297 45.8327 47.4481 43.646 47.4481 37.4993V29.4993C47.4481 23.3527 45.3297 21.166 39.3752 21.166H31.6252Z" fill="#5E5A5A"/>
<path d="M35.5 43.0325C31.7542 43.0325 28.7188 39.8859 28.7188 36.0325C28.7188 34.8192 29.6746 33.8325 30.85 33.8325H40.15C41.3254 33.8325 42.2812 34.8192 42.2812 36.0325C42.2812 39.8859 39.2458 43.0325 35.5 43.0325ZM30.85 35.8325C30.7467 35.8325 30.6562 35.9259 30.6562 36.0325C30.6562 38.7925 32.8263 41.0325 35.5 41.0325C38.1737 41.0325 40.3438 38.7925 40.3438 36.0325C40.3438 35.9259 40.2533 35.8325 40.15 35.8325H30.85Z" fill="#5E5A5A"/>
<circle cx="30.5" cy="28" r="2.5" fill="#5E5A5A"/>
<circle cx="41.5" cy="28" r="2.5" fill="#5E5A5A"/>
</svg>
