<svg width="33" height="31" viewBox="0 0 33 31" fill="none" xmlns="http://www.w3.org/2000/svg">
<path d="M24.945 22.6654C21.39 22.7117 17.9594 21.4161 15.3981 19.0599C12.8368 16.7036 11.3516 13.4771 11.265 10.0807C11.2657 8.41426 11.6195 6.76518 12.3053 5.23294C12.991 3.70069 13.9944 2.31703 15.255 1.16541C11.518 1.51798 8.04845 3.17524 5.5105 5.81988C2.97256 8.46453 1.5446 11.9108 1.5 15.4987C1.59057 19.3778 3.28642 23.0644 6.21605 25.751C9.14568 28.4376 13.0702 29.9051 17.13 29.8321C20.1532 29.8573 23.1194 29.0449 25.6696 27.4933C28.2199 25.9416 30.245 23.717 31.5 21.0887C29.4833 22.1198 27.2322 22.6613 24.945 22.6654Z" stroke="#D9D9D9" stroke-opacity="0.65" stroke-width="2" stroke-linecap="round" stroke-linejoin="round"/>
</svg>
