<svg width="33" height="34" viewBox="0 0 33 34" fill="none" xmlns="http://www.w3.org/2000/svg">
<path d="M20.8748 33.125H12.1248C4.20609 33.125 0.822754 29.645 0.822754 21.5V12.5C0.822754 4.355 4.20609 0.875 12.1248 0.875H20.8748C28.7936 0.875 32.1769 4.355 32.1769 12.5V21.5C32.1769 29.645 28.7936 33.125 20.8748 33.125ZM12.1248 3.125C5.40192 3.125 3.01025 5.585 3.01025 12.5V21.5C3.01025 28.415 5.40192 30.875 12.1248 30.875H20.8748C27.5978 30.875 29.9894 28.415 29.9894 21.5V12.5C29.9894 5.585 27.5978 3.125 20.8748 3.125H12.1248Z" fill="#5E5A5A"/>
<path d="M11.8615 13.6247C10.6219 13.6247 9.38229 13.1447 8.43438 12.1697C8.01146 11.7347 8.01146 11.0147 8.43438 10.5797C8.85729 10.1447 9.55729 10.1447 9.98021 10.5797C11.0156 11.6447 12.7073 11.6447 13.7428 10.5797C14.1657 10.1447 14.8657 10.1447 15.2886 10.5797C15.7115 11.0147 15.7115 11.7347 15.2886 12.1697C14.3407 13.1297 13.101 13.6247 11.8615 13.6247Z" fill="#5E5A5A"/>
<path d="M21.1383 13.6247C19.8987 13.6247 18.6591 13.1447 17.7112 12.1697C17.2883 11.7347 17.2883 11.0147 17.7112 10.5797C18.1341 10.1447 18.8341 10.1447 19.2571 10.5797C20.2925 11.6447 21.9841 11.6447 23.0196 10.5797C23.4425 10.1447 24.1425 10.1447 24.5654 10.5797C24.9883 11.0147 24.9883 11.7347 24.5654 12.1697C23.6175 13.1297 22.3779 13.6247 21.1383 13.6247Z" fill="#5E5A5A"/>
<path d="M16.5 27.725C12.2708 27.725 8.84375 24.185 8.84375 19.85C8.84375 18.485 9.92292 17.375 11.25 17.375H21.75C23.0771 17.375 24.1562 18.485 24.1562 19.85C24.1562 24.185 20.7292 27.725 16.5 27.725ZM11.25 19.625C11.1333 19.625 11.0312 19.73 11.0312 19.85C11.0312 22.955 13.4813 25.475 16.5 25.475C19.5188 25.475 21.9688 22.955 21.9688 19.85C21.9688 19.73 21.8667 19.625 21.75 19.625H11.25Z" fill="#5E5A5A"/>
</svg>
