<svg width="44" height="43" viewBox="0 0 44 43" fill="none" xmlns="http://www.w3.org/2000/svg">
<g clip-path="url(#clip0_105_4588)">
<path d="M22 33.5938C28.8345 33.5938 34.375 28.1792 34.375 21.5C34.375 14.8208 28.8345 9.40625 22 9.40625C15.1655 9.40625 9.625 14.8208 9.625 21.5C9.625 28.1792 15.1655 33.5938 22 33.5938Z" fill="#5E5A5A"/>
<path d="M24.0625 5.56178V2.6875C24.0625 2.15292 23.8452 1.64024 23.4584 1.26224C23.0716 0.884235 22.547 0.671875 22 0.671875C21.453 0.671875 20.9284 0.884235 20.5416 1.26224C20.1548 1.64024 19.9375 2.15292 19.9375 2.6875V5.56178C19.9375 6.09636 20.1548 6.60904 20.5416 6.98704C20.9284 7.36505 21.453 7.57741 22 7.57741C22.547 7.57741 23.0716 7.36505 23.4584 6.98704C23.8452 6.60904 24.0625 6.09636 24.0625 5.56178ZM11.9268 11.6543C12.3134 11.2764 12.5306 10.7638 12.5306 10.2293C12.5306 9.69483 12.3134 9.18224 11.9268 8.80425L9.845 6.7725C9.65551 6.57682 9.42781 6.42024 9.17535 6.31203C8.92288 6.20382 8.65078 6.14617 8.37513 6.14249C8.09948 6.1388 7.82587 6.18917 7.57047 6.29059C7.31507 6.39202 7.08307 6.54245 6.88819 6.733C6.6933 6.92355 6.53947 7.15034 6.43581 7.39998C6.33215 7.64962 6.28074 7.91704 6.28464 8.18643C6.28854 8.45581 6.34766 8.7217 6.45851 8.96838C6.56935 9.21505 6.72968 9.43751 6.93 9.62259L9.009 11.6543C9.20035 11.842 9.42772 11.9908 9.67807 12.0924C9.92841 12.194 10.1968 12.2463 10.4679 12.2463C10.7389 12.2463 11.0073 12.194 11.2577 12.0924C11.508 11.9908 11.7354 11.842 11.9268 11.6543ZM2.75 23.5156H5.68975C6.23676 23.5156 6.76136 23.3033 7.14816 22.9253C7.53495 22.5473 7.75225 22.0346 7.75225 21.5C7.75225 20.9654 7.53495 20.4527 7.14816 20.0747C6.76136 19.6967 6.23676 19.4844 5.68975 19.4844H2.75C2.20299 19.4844 1.67839 19.6967 1.29159 20.0747C0.904798 20.4527 0.6875 20.9654 0.6875 21.5C0.6875 22.0346 0.904798 22.5473 1.29159 22.9253C1.67839 23.3033 2.20299 23.5156 2.75 23.5156ZM6.93 36.2275C7.12114 36.4152 7.34837 36.5642 7.59861 36.6659C7.84885 36.7676 8.11718 36.8199 8.38819 36.8199C8.65919 36.8199 8.92752 36.7676 9.17777 36.6659C9.42801 36.5642 9.65523 36.4152 9.84637 36.2275L11.9254 34.1958C12.128 34.0112 12.2905 33.7887 12.4033 33.5414C12.516 33.2942 12.5766 33.0273 12.5815 32.7567C12.5864 32.486 12.5354 32.2172 12.4317 31.9662C12.328 31.7152 12.1736 31.4872 11.9777 31.2958C11.7819 31.1044 11.5486 30.9535 11.2918 30.8522C11.035 30.7508 10.7599 30.701 10.4829 30.7058C10.206 30.7106 9.93289 30.7698 9.6799 30.88C9.4269 30.9901 9.1992 31.149 9.01038 31.347L6.93 33.3761C6.73834 33.5632 6.5863 33.7855 6.48257 34.0301C6.37883 34.2748 6.32544 34.537 6.32544 34.8018C6.32544 35.0666 6.37883 35.3288 6.48257 35.5734C6.5863 35.8181 6.73834 36.0403 6.93 36.2275ZM19.9375 37.4382V40.3125C19.9375 40.8471 20.1548 41.3598 20.5416 41.7378C20.9284 42.1158 21.453 42.3281 22 42.3281C22.547 42.3281 23.0716 42.1158 23.4584 41.7378C23.8452 41.3598 24.0625 40.8471 24.0625 40.3125V37.4382C24.0625 36.9036 23.8452 36.391 23.4584 36.013C23.0716 35.635 22.547 35.4226 22 35.4226C21.453 35.4226 20.9284 35.635 20.5416 36.013C20.1548 36.391 19.9375 36.9036 19.9375 37.4382ZM34.1536 36.2275C34.3448 36.4152 34.572 36.5642 34.8222 36.6659C35.0725 36.7676 35.3408 36.8199 35.6118 36.8199C35.8828 36.8199 36.1511 36.7676 36.4014 36.6659C36.6516 36.5642 36.8789 36.4152 37.07 36.2275C37.4567 35.8495 37.6739 35.3369 37.6739 34.8025C37.6739 34.268 37.4567 33.7554 37.07 33.3774L34.991 31.3457C34.8015 31.15 34.5738 30.9934 34.3213 30.8852C34.0689 30.777 33.7968 30.7193 33.5211 30.7156C33.2455 30.712 32.9719 30.7623 32.7165 30.8637C32.4611 30.9652 32.2291 31.1156 32.0342 31.3062C31.8393 31.4967 31.6855 31.7235 31.5818 31.9731C31.4781 32.2228 31.4267 32.4902 31.4306 32.7596C31.4345 33.029 31.4937 33.2949 31.6045 33.5415C31.7154 33.7882 31.8757 34.0107 32.076 34.1958L34.1522 36.2275H34.1536ZM41.25 19.4844H38.3089C37.7619 19.4844 37.2373 19.6967 36.8505 20.0747C36.4637 20.4527 36.2464 20.9654 36.2464 21.5C36.2464 22.0346 36.4637 22.5473 36.8505 22.9253C37.2373 23.3033 37.7619 23.5156 38.3089 23.5156H41.25C41.797 23.5156 42.3216 23.3033 42.7084 22.9253C43.0952 22.5473 43.3125 22.0346 43.3125 21.5C43.3125 20.9654 43.0952 20.4527 42.7084 20.0747C42.3216 19.6967 41.797 19.4844 41.25 19.4844ZM37.07 6.7725C36.6832 6.39463 36.1587 6.18235 35.6118 6.18235C35.0649 6.18235 34.5404 6.39463 34.1536 6.7725L32.0746 8.80425C31.8744 8.98943 31.7142 9.21196 31.6034 9.45868C31.4927 9.70541 31.4337 9.97133 31.43 10.2407C31.4262 10.5101 31.4777 10.7775 31.5815 11.0271C31.6853 11.2767 31.8392 11.5034 32.0342 11.6939C32.2292 11.8843 32.4613 12.0346 32.7167 12.136C32.9721 12.2373 33.2458 12.2875 33.5214 12.2837C33.7971 12.2799 34.0692 12.2221 34.3216 12.1138C34.574 12.0055 34.8016 11.8488 34.991 11.653L37.07 9.62394C37.2617 9.43675 37.4137 9.21449 37.5174 8.96986C37.6212 8.72523 37.6746 8.46302 37.6746 8.19822C37.6746 7.93341 37.6212 7.67121 37.5174 7.42657C37.4137 7.18194 37.2617 6.95968 37.07 6.7725Z" fill="#5E5A5A"/>
</g>
<defs>
<clipPath id="clip0_105_4588">
<rect width="44" height="43" fill="white"/>
</clipPath>
</defs>
</svg>
