<svg width="51" height="49" viewBox="0 0 51 49" fill="none" xmlns="http://www.w3.org/2000/svg">
<path d="M19.3752 30.3327H11.6252C4.61141 30.3327 1.61475 27.2393 1.61475 19.9993V11.9993C1.61475 4.75935 4.61141 1.66602 11.6252 1.66602H19.3752C26.3889 1.66602 29.3856 4.75935 29.3856 11.9993V19.9993C29.3856 27.2393 26.3889 30.3327 19.3752 30.3327ZM11.6252 3.66602C5.67058 3.66602 3.55225 5.85268 3.55225 11.9993V19.9993C3.55225 26.146 5.67058 28.3327 11.6252 28.3327H19.3752C25.3297 28.3327 27.4481 26.146 27.4481 19.9993V11.9993C27.4481 5.85268 25.3297 3.66602 19.3752 3.66602H11.6252Z" fill="white" fill-opacity="0.73"/>
<path d="M11.392 12.9986C10.2941 12.9986 9.1962 12.572 8.35662 11.7053C7.98204 11.3186 7.98204 10.6786 8.35662 10.292C8.7312 9.90529 9.3512 9.90529 9.72579 10.292C10.6429 11.2386 12.1412 11.2386 13.0584 10.292C13.4329 9.90529 14.0529 9.90529 14.4275 10.292C14.8021 10.6786 14.8021 11.3186 14.4275 11.7053C13.5879 12.5586 12.49 12.9986 11.392 12.9986Z" fill="white" fill-opacity="0.73"/>
<path d="M19.6088 12.9986C18.5109 12.9986 17.413 12.572 16.5734 11.7053C16.1988 11.3186 16.1988 10.6786 16.5734 10.292C16.948 9.90529 17.568 9.90529 17.9426 10.292C18.8597 11.2386 20.358 11.2386 21.2751 10.292C21.6497 9.90529 22.2697 9.90529 22.6443 10.292C23.0188 10.6786 23.0188 11.3186 22.6443 11.7053C21.8047 12.5586 20.7068 12.9986 19.6088 12.9986Z" fill="white" fill-opacity="0.73"/>
<path d="M15.5 25.532C11.7542 25.532 8.71875 22.3854 8.71875 18.532C8.71875 17.3187 9.67458 16.332 10.85 16.332H20.15C21.3254 16.332 22.2812 17.3187 22.2812 18.532C22.2812 22.3854 19.2458 25.532 15.5 25.532ZM10.85 18.332C10.7467 18.332 10.6562 18.4254 10.6562 18.532C10.6562 21.292 12.8263 23.532 15.5 23.532C18.1737 23.532 20.3438 21.292 20.3438 18.532C20.3438 18.4254 20.2533 18.332 20.15 18.332H10.85Z" fill="white" fill-opacity="0.73"/>
<path d="M39.3752 47.3327H31.6252C24.6114 47.3327 21.6147 44.2393 21.6147 36.9993V28.9993C21.6147 21.7593 24.6114 18.666 31.6252 18.666H39.3752C46.3889 18.666 49.3856 21.7593 49.3856 28.9993V36.9993C49.3856 44.2393 46.3889 47.3327 39.3752 47.3327ZM31.6252 20.666C25.6706 20.666 23.5522 22.8527 23.5522 28.9993V36.9993C23.5522 43.146 25.6706 45.3327 31.6252 45.3327H39.3752C45.3297 45.3327 47.4481 43.146 47.4481 36.9993V28.9993C47.4481 22.8527 45.3297 20.666 39.3752 20.666H31.6252Z" fill="white" fill-opacity="0.73"/>
<path d="M35.5 42.532C31.7542 42.532 28.7188 39.3854 28.7188 35.532C28.7188 34.3187 29.6746 33.332 30.85 33.332H40.15C41.3254 33.332 42.2812 34.3187 42.2812 35.532C42.2812 39.3854 39.2458 42.532 35.5 42.532ZM30.85 35.332C30.7467 35.332 30.6562 35.4254 30.6562 35.532C30.6562 38.292 32.8263 40.532 35.5 40.532C38.1737 40.532 40.3438 38.292 40.3438 35.532C40.3438 35.4254 40.2533 35.332 40.15 35.332H30.85Z" fill="white" fill-opacity="0.73"/>
<circle cx="30.5" cy="27.5" r="2.5" fill="#D9D9D9"/>
<circle cx="41.5" cy="27.5" r="2.5" fill="#D9D9D9"/>
</svg>
