<svg width="51" height="49" viewBox="0 0 51 49" fill="none" xmlns="http://www.w3.org/2000/svg">
<path d="M19.3747 30.3327H11.6247C4.61092 30.3327 1.61426 27.2393 1.61426 19.9993V11.9993C1.61426 4.75935 4.61092 1.66602 11.6247 1.66602H19.3747C26.3884 1.66602 29.3851 4.75935 29.3851 11.9993V19.9993C29.3851 27.2393 26.3884 30.3327 19.3747 30.3327ZM11.6247 3.66602C5.67009 3.66602 3.55176 5.85268 3.55176 11.9993V19.9993C3.55176 26.146 5.67009 28.3327 11.6247 28.3327H19.3747C25.3293 28.3327 27.4476 26.146 27.4476 19.9993V11.9993C27.4476 5.85268 25.3293 3.66602 19.3747 3.66602H11.6247Z" fill="#5E5A5A"/>
<path d="M11.3915 12.9986C10.2936 12.9986 9.19572 12.572 8.35613 11.7053C7.98155 11.3186 7.98155 10.6786 8.35613 10.292C8.73072 9.90529 9.35072 9.90529 9.7253 10.292C10.6424 11.2386 12.1407 11.2386 13.0579 10.292C13.4324 9.90529 14.0524 9.90529 14.427 10.292C14.8016 10.6786 14.8016 11.3186 14.427 11.7053C13.5874 12.5586 12.4895 12.9986 11.3915 12.9986Z" fill="#5E5A5A"/>
<path d="M19.6083 12.9986C18.5104 12.9986 17.4125 12.572 16.5729 11.7053C16.1983 11.3186 16.1983 10.6786 16.5729 10.292C16.9475 9.90529 17.5675 9.90529 17.9421 10.292C18.8592 11.2386 20.3575 11.2386 21.2746 10.292C21.6492 9.90529 22.2692 9.90529 22.6438 10.292C23.0183 10.6786 23.0183 11.3186 22.6438 11.7053C21.8042 12.5586 20.7063 12.9986 19.6083 12.9986Z" fill="#5E5A5A"/>
<path d="M15.5 25.532C11.7542 25.532 8.71875 22.3854 8.71875 18.532C8.71875 17.3187 9.67458 16.332 10.85 16.332H20.15C21.3254 16.332 22.2812 17.3187 22.2812 18.532C22.2812 22.3854 19.2458 25.532 15.5 25.532ZM10.85 18.332C10.7467 18.332 10.6562 18.4254 10.6562 18.532C10.6562 21.292 12.8263 23.532 15.5 23.532C18.1737 23.532 20.3438 21.292 20.3438 18.532C20.3438 18.4254 20.2533 18.332 20.15 18.332H10.85Z" fill="#5E5A5A"/>
<path d="M39.3757 47.3327H31.6257C24.6119 47.3327 21.6152 44.2393 21.6152 36.9993V28.9993C21.6152 21.7593 24.6119 18.666 31.6257 18.666H39.3757C46.3894 18.666 49.3861 21.7593 49.3861 28.9993V36.9993C49.3861 44.2393 46.3894 47.3327 39.3757 47.3327ZM31.6257 20.666C25.6711 20.666 23.5527 22.8527 23.5527 28.9993V36.9993C23.5527 43.146 25.6711 45.3327 31.6257 45.3327H39.3757C45.3302 45.3327 47.4486 43.146 47.4486 36.9993V28.9993C47.4486 22.8527 45.3302 20.666 39.3757 20.666H31.6257Z" fill="#5E5A5A"/>
<path d="M35.501 42.532C31.7551 42.532 28.7197 39.3854 28.7197 35.532C28.7197 34.3187 29.6756 33.332 30.851 33.332H40.151C41.3264 33.332 42.2822 34.3187 42.2822 35.532C42.2822 39.3854 39.2468 42.532 35.501 42.532ZM30.851 35.332C30.7476 35.332 30.6572 35.4254 30.6572 35.532C30.6572 38.292 32.8272 40.532 35.501 40.532C38.1747 40.532 40.3447 38.292 40.3447 35.532C40.3447 35.4254 40.2543 35.332 40.151 35.332H30.851Z" fill="#5E5A5A"/>
<circle cx="30.5" cy="27.5" r="2.5" fill="#5E5A5A"/>
<circle cx="41.5" cy="27.5" r="2.5" fill="#5E5A5A"/>
</svg>
