<svg width="39" height="40" viewBox="0 0 39 40" fill="none" xmlns="http://www.w3.org/2000/svg">
<path d="M24.375 37.9173H14.625C5.80125 37.9173 2.03125 34.0506 2.03125 25.0007V15.0007C2.03125 5.95065 5.80125 2.08398 14.625 2.08398H24.375C33.1987 2.08398 36.9688 5.95065 36.9688 15.0007V25.0007C36.9688 34.0506 33.1987 37.9173 24.375 37.9173ZM14.625 4.58398C7.13375 4.58398 4.46875 7.31732 4.46875 15.0007V25.0007C4.46875 32.684 7.13375 35.4173 14.625 35.4173H24.375C31.8663 35.4173 34.5312 32.684 34.5312 25.0007V15.0007C34.5312 7.31732 31.8663 4.58398 24.375 4.58398H14.625Z" fill="#5E5A5A"/>
<path d="M14.3314 16.2497C12.9501 16.2497 11.5689 15.7164 10.5126 14.6331C10.0414 14.1497 10.0414 13.3497 10.5126 12.8664C10.9839 12.3831 11.7639 12.3831 12.2351 12.8664C13.3889 14.0497 15.2739 14.0497 16.4277 12.8664C16.8989 12.3831 17.6789 12.3831 18.1502 12.8664C18.6214 13.3497 18.6214 14.1497 18.1502 14.6331C17.0939 15.6997 15.7126 16.2497 14.3314 16.2497Z" fill="#5E5A5A"/>
<path d="M24.6693 16.2497C23.288 16.2497 21.9068 15.7164 20.8505 14.6331C20.3793 14.1497 20.3793 13.3497 20.8505 12.8664C21.3218 12.3831 22.1018 12.3831 22.573 12.8664C23.7268 14.0497 25.6118 14.0497 26.7655 12.8664C27.2368 12.3831 28.0168 12.3831 28.488 12.8664C28.9593 13.3497 28.9593 14.1497 28.488 14.6331C27.4318 15.6997 26.0505 16.2497 24.6693 16.2497Z" fill="#5E5A5A"/>
<path d="M19.5 31.918C14.7875 31.918 10.9688 27.9846 10.9688 23.168C10.9688 21.6513 12.1712 20.418 13.65 20.418H25.35C26.8288 20.418 28.0312 21.6513 28.0312 23.168C28.0312 27.9846 24.2125 31.918 19.5 31.918ZM13.65 22.918C13.52 22.918 13.4062 23.0346 13.4062 23.168C13.4062 26.618 16.1363 29.418 19.5 29.418C22.8637 29.418 25.5938 26.618 25.5938 23.168C25.5938 23.0346 25.48 22.918 25.35 22.918H13.65Z" fill="#5E5A5A"/>
</svg>
