<svg width="27" height="29" viewBox="0 0 27 29" fill="none" xmlns="http://www.w3.org/2000/svg">
<rect y="0.351318" width="27" height="28.2215" rx="4" fill="white"/>
<path d="M26.1596 3.7733C26.3173 3.93861 26.4058 4.16251 26.4058 4.39593C26.4058 4.62936 26.3173 4.85326 26.1596 5.01857L24.3996 6.86002L21.0246 3.33234L22.7846 1.49088C22.9429 1.32555 23.1574 1.23267 23.3812 1.23267C23.6049 1.23267 23.8195 1.32555 23.9777 1.49088L26.1596 3.77153V3.7733ZM23.2065 8.1053L19.8315 4.57761L8.33457 16.5964C8.2417 16.6935 8.17178 16.8119 8.13038 16.9422L6.77195 21.2001C6.74731 21.2777 6.74381 21.361 6.76184 21.4405C6.77988 21.5201 6.81873 21.5929 6.87405 21.6507C6.92938 21.7086 6.999 21.7492 7.07514 21.768C7.15128 21.7869 7.23093 21.7832 7.3052 21.7575L11.3788 20.3376C11.5033 20.2948 11.6165 20.2223 11.7096 20.1259L23.2065 8.1053Z" fill="#302F35"/>
<path fill-rule="evenodd" clip-rule="evenodd" d="M1.6875 24.1633C1.6875 24.865 1.95418 25.538 2.42889 26.0341C2.90359 26.5303 3.54742 26.8091 4.21875 26.8091H22.7812C23.4526 26.8091 24.0964 26.5303 24.5711 26.0341C25.0458 25.538 25.3125 24.865 25.3125 24.1633V13.5802C25.3125 13.3463 25.2236 13.122 25.0654 12.9566C24.9071 12.7912 24.6925 12.6983 24.4688 12.6983C24.245 12.6983 24.0304 12.7912 23.8721 12.9566C23.7139 13.122 23.625 13.3463 23.625 13.5802V24.1633C23.625 24.3972 23.5361 24.6215 23.3779 24.7869C23.2196 24.9523 23.005 25.0452 22.7812 25.0452H4.21875C3.99497 25.0452 3.78036 24.9523 3.62213 24.7869C3.46389 24.6215 3.375 24.3972 3.375 24.1633V4.761C3.375 4.5271 3.46389 4.30278 3.62213 4.13739C3.78036 3.972 3.99497 3.87908 4.21875 3.87908H15.1875C15.4113 3.87908 15.6259 3.78616 15.7841 3.62077C15.9424 3.45538 16.0312 3.23106 16.0312 2.99716C16.0312 2.76326 15.9424 2.53894 15.7841 2.37354C15.6259 2.20815 15.4113 2.11523 15.1875 2.11523H4.21875C3.54742 2.11523 2.90359 2.39398 2.42889 2.89016C1.95418 3.38634 1.6875 4.0593 1.6875 4.761V24.1633Z" fill="#302F35"/>
</svg>
