<svg width="16" height="16" viewBox="0 0 16 16" fill="none" xmlns="http://www.w3.org/2000/svg">
<path d="M8.28999 9.55295L1.94499 5.5151C1.61696 5.29817 1.38725 4.96109 1.30532 4.57645C1.22339 4.19181 1.29579 3.79038 1.50694 3.4586C1.71808 3.12682 2.05108 2.89123 2.43422 2.80257C2.81737 2.7139 3.22001 2.77926 3.55544 2.98455L8.21044 5.9467L12.39 3.02095C12.7161 2.79998 13.116 2.71615 13.5034 2.78756C13.8908 2.85896 14.2345 3.07989 14.4604 3.4026C14.6862 3.72532 14.7761 4.12393 14.7105 4.51235C14.645 4.90076 14.4293 5.24779 14.11 5.4785L8.28999 9.55295Z" fill="#EA4435"/>
<path d="M13.75 13.25H11.75V4.25C11.75 3.85218 11.908 3.47064 12.1893 3.18934C12.4706 2.90804 12.8522 2.75 13.25 2.75C13.6478 2.75 14.0294 2.90804 14.3107 3.18934C14.592 3.47064 14.75 3.85218 14.75 4.25L14.75 12.25C14.75 12.5152 14.6446 12.7696 14.4571 12.9571C14.2696 13.1446 14.0152 13.25 13.75 13.25Z" fill="#00AC47"/>
<path d="M14.7281 4.03321C14.7237 4.00321 14.7241 3.97256 14.7178 3.94261C14.7082 3.89671 14.6904 3.85431 14.6767 3.81001C14.6634 3.75931 14.6474 3.70935 14.6288 3.66036C14.6188 3.63661 14.6034 3.61576 14.592 3.59266C14.5609 3.52601 14.5249 3.46175 14.4843 3.40041C14.4643 3.37136 14.4393 3.34661 14.4172 3.31911C14.3793 3.26913 14.3383 3.22156 14.2945 3.17666C14.2612 3.14431 14.2233 3.11726 14.1872 3.08811C14.1488 3.05517 14.1087 3.02418 14.0672 2.99526C14.0275 2.96936 13.9841 2.94941 13.9422 2.92731C13.898 2.90426 13.8547 2.87916 13.8087 2.86076C13.7642 2.84286 13.7168 2.83146 13.6704 2.81781C13.6239 2.80416 13.5777 2.78781 13.53 2.77896C13.4709 2.76947 13.4113 2.76346 13.3515 2.76096C13.3136 2.75831 13.276 2.75166 13.2379 2.75196C13.1671 2.75402 13.0966 2.76113 13.0269 2.77321C12.9988 2.77741 12.9704 2.77706 12.9425 2.78286C12.8481 2.81169 12.754 2.84136 12.6602 2.87186C12.6345 2.88286 12.6119 2.89921 12.587 2.91161C12.3331 3.03009 12.1189 3.21957 11.9704 3.45716C11.8219 3.69474 11.7453 3.97026 11.75 4.25041V7.13141L14.11 5.47926C14.3418 5.32373 14.5235 5.10436 14.6332 4.8477C14.7428 4.59104 14.7759 4.3082 14.7281 4.03321Z" fill="#FFBA00"/>
<path d="M2.75 2.75C3.14782 2.75 3.52936 2.90804 3.81066 3.18934C4.09196 3.47064 4.25 3.85218 4.25 4.25V13.25H2.25C1.98478 13.25 1.73043 13.1446 1.54289 12.9571C1.35536 12.7696 1.25 12.5152 1.25 12.25V4.25C1.25 3.85218 1.40804 3.47064 1.68934 3.18934C1.97064 2.90804 2.35218 2.75 2.75 2.75Z" fill="#4285F4"/>
<path d="M1.27192 4.03259C1.27632 4.00259 1.27597 3.97194 1.28222 3.94199C1.29182 3.89609 1.30967 3.85369 1.32337 3.80939C1.33665 3.7587 1.35264 3.70876 1.37127 3.65979C1.38127 3.63604 1.39667 3.61519 1.40807 3.59209C1.43916 3.52541 1.47516 3.46113 1.51577 3.39979C1.53577 3.37074 1.56077 3.34599 1.58287 3.31849C1.62078 3.26851 1.66176 3.22093 1.70557 3.17604C1.73882 3.14369 1.77672 3.11664 1.81292 3.08749C1.85133 3.05453 1.89138 3.02354 1.93292 2.99464C1.97257 2.96874 2.01597 2.94879 2.05792 2.92669C2.10127 2.90217 2.14583 2.87984 2.19142 2.85979C2.23592 2.84189 2.28332 2.83049 2.32972 2.81684C2.37612 2.80319 2.42237 2.78684 2.47007 2.77799C2.52917 2.7685 2.58877 2.76249 2.64857 2.75999C2.68657 2.75734 2.72412 2.75069 2.76222 2.75099C2.83295 2.75305 2.90345 2.76015 2.97317 2.77224C3.00132 2.77644 3.02967 2.77609 3.05767 2.78189C3.10607 2.79422 3.1538 2.80904 3.20067 2.82629C3.2478 2.83881 3.29428 2.8537 3.33992 2.87089C3.36562 2.88189 3.38817 2.89824 3.41317 2.91064C3.47798 2.94109 3.54051 2.97618 3.60027 3.01564C3.80059 3.15318 3.96442 3.33742 4.07761 3.55244C4.1908 3.76745 4.24996 4.00679 4.24997 4.24979V7.13079L1.88997 5.47874C1.65826 5.32316 1.47658 5.10378 1.3669 4.84714C1.25721 4.5905 1.22423 4.30758 1.27192 4.03259Z" fill="#C52528"/>
</svg>
